<svg width="1366" height="250" viewBox="0 0 1366 250" fill="none" xmlns="http://www.w3.org/2000/svg">
<mask id="mask0_1_812" style="mask-type:alpha" maskUnits="userSpaceOnUse" x="0" y="0" width="1366" height="250">
<rect width="1366" height="250" fill="#C4C4C4"/>
</mask>
<g mask="url(#mask0_1_812)">
<rect y="-111" width="1366" height="471" fill="url(#paint0_linear_1_812)"/>
<path d="M-72 97C-3 77.5 148.7 46.3 203.5 77.5C258.3 108.7 320.333 231.167 344.5 288.5L827 275C751.833 232.667 600.1 133.9 594.5 77.5C588.9 21.1 684.5 -60 733 -93.5L967 -69.5C970.167 -45.1667 986.1 10.9 1024.5 40.5C1062.9 70.1 1306.5 -9.16667 1423.5 -52.5L1438 344C1393.5 279.333 1290.1 148.6 1232.5 143C1174.9 137.4 1002.83 215.667 924 255.5" stroke="white" stroke-opacity="0.15" stroke-width="15"/>
<circle cx="88" cy="23" r="9" fill="white" fill-opacity="0.2"/>
<circle cx="480" cy="115" r="9" fill="white" fill-opacity="0.2"/>
<circle cx="602" cy="250" r="9" fill="white" fill-opacity="0.2"/>
<circle cx="845" cy="35" r="9" fill="white" fill-opacity="0.2"/>
<circle cx="1193" cy="200" r="9" fill="white" fill-opacity="0.2"/>
<circle cx="1366" cy="116" r="9" fill="white" fill-opacity="0.2"/>
<circle cx="240" cy="250" r="17" stroke="white" stroke-opacity="0.6" stroke-width="8"/>
<circle cx="11" cy="170" r="17" stroke="white" stroke-opacity="0.6" stroke-width="8"/>
<circle cx="382" r="17" stroke="white" stroke-opacity="0.6" stroke-width="8"/>
<circle cx="877" cy="221" r="17" stroke="white" stroke-opacity="0.6" stroke-width="8"/>
<circle cx="1267" cy="71" r="17" stroke="white" stroke-opacity="0.6" stroke-width="8"/>
</g>
<path d="M594.219 97.8164C593.904 101.154 592.672 103.76 590.523 105.637C588.375 107.499 585.518 108.43 581.951 108.43C579.459 108.43 577.26 107.842 575.355 106.668C573.465 105.479 572.004 103.796 570.973 101.619C569.941 99.4421 569.404 96.9141 569.361 94.0352V91.1133C569.361 88.1628 569.884 85.5632 570.93 83.3145C571.975 81.0658 573.472 79.3327 575.42 78.1152C577.382 76.8978 579.645 76.2891 582.209 76.2891C585.661 76.2891 588.439 77.2272 590.545 79.1035C592.65 80.9798 593.875 83.6296 594.219 87.0527H588.805C588.547 84.804 587.888 83.1855 586.828 82.1973C585.782 81.1947 584.243 80.6934 582.209 80.6934C579.846 80.6934 578.027 81.5599 576.752 83.293C575.491 85.0117 574.847 87.5397 574.818 90.877V93.6484C574.818 97.0286 575.42 99.6068 576.623 101.383C577.84 103.159 579.616 104.047 581.951 104.047C584.085 104.047 585.689 103.567 586.764 102.607C587.838 101.648 588.518 100.051 588.805 97.8164H594.219ZM599.373 96.1621C599.373 93.8848 599.824 91.8366 600.727 90.0176C601.629 88.1842 602.897 86.7806 604.529 85.8066C606.162 84.8184 608.039 84.3242 610.158 84.3242C613.295 84.3242 615.837 85.334 617.785 87.3535C619.748 89.373 620.807 92.0514 620.965 95.3887L620.986 96.6133C620.986 98.9049 620.542 100.953 619.654 102.758C618.781 104.562 617.52 105.959 615.873 106.947C614.24 107.936 612.35 108.43 610.201 108.43C606.921 108.43 604.293 107.341 602.317 105.164C600.354 102.973 599.373 100.058 599.373 96.4199V96.1621ZM604.594 96.6133C604.594 99.0052 605.088 100.882 606.076 102.242C607.065 103.589 608.44 104.262 610.201 104.262C611.963 104.262 613.331 103.574 614.305 102.199C615.293 100.824 615.787 98.8118 615.787 96.1621C615.787 93.8132 615.279 91.9512 614.262 90.5762C613.259 89.2012 611.891 88.5137 610.158 88.5137C608.454 88.5137 607.1 89.194 606.098 90.5547C605.095 91.901 604.594 93.9206 604.594 96.6133ZM632.006 84.7539L632.157 87.4395C633.875 85.3626 636.131 84.3242 638.924 84.3242C643.765 84.3242 646.229 87.0957 646.315 92.6387V108H641.094V92.9395C641.094 91.4642 640.772 90.3757 640.127 89.6738C639.497 88.9577 638.459 88.5996 637.012 88.5996C634.907 88.5996 633.338 89.5521 632.307 91.457V108H627.086V84.7539H632.006ZM659.956 79.1035V84.7539H664.059V88.6211H659.956V101.598C659.956 102.486 660.128 103.13 660.471 103.531C660.829 103.918 661.46 104.111 662.362 104.111C662.964 104.111 663.572 104.04 664.188 103.896V107.936C662.999 108.265 661.853 108.43 660.751 108.43C656.74 108.43 654.735 106.217 654.735 101.791V88.6211H650.911V84.7539H654.735V79.1035H659.956ZM683.716 108C683.487 107.556 683.286 106.833 683.114 105.83C681.453 107.563 679.419 108.43 677.013 108.43C674.678 108.43 672.773 107.764 671.298 106.432C669.822 105.1 669.085 103.452 669.085 101.49C669.085 99.0124 670.002 97.1146 671.835 95.7969C673.683 94.4648 676.318 93.7988 679.741 93.7988H682.942V92.2734C682.942 91.0703 682.606 90.1107 681.933 89.3945C681.259 88.6641 680.235 88.2988 678.86 88.2988C677.671 88.2988 676.697 88.5996 675.938 89.2012C675.179 89.7884 674.8 90.5404 674.8 91.457H669.579C669.579 90.1823 670.002 88.9935 670.847 87.8906C671.692 86.7734 672.837 85.8997 674.284 85.2695C675.745 84.6393 677.371 84.3242 679.161 84.3242C681.882 84.3242 684.052 85.0117 685.671 86.3867C687.289 87.7474 688.12 89.6667 688.163 92.1445V102.629C688.163 104.72 688.457 106.389 689.044 107.635V108H683.716ZM677.979 104.24C679.011 104.24 679.977 103.99 680.88 103.488C681.796 102.987 682.484 102.314 682.942 101.469V97.0859H680.128C678.194 97.0859 676.74 97.4225 675.766 98.0957C674.793 98.7689 674.306 99.7214 674.306 100.953C674.306 101.956 674.635 102.758 675.294 103.359C675.967 103.947 676.862 104.24 677.979 104.24ZM704.941 104.262C706.244 104.262 707.325 103.882 708.185 103.123C709.044 102.364 709.502 101.426 709.56 100.309H714.48C714.422 101.755 713.971 103.109 713.126 104.369C712.281 105.615 711.135 106.604 709.689 107.334C708.242 108.064 706.681 108.43 705.005 108.43C701.754 108.43 699.176 107.377 697.271 105.271C695.366 103.166 694.413 100.258 694.413 96.5488V96.0117C694.413 92.474 695.359 89.6452 697.249 87.5254C699.14 85.3913 701.718 84.3242 704.984 84.3242C707.748 84.3242 709.997 85.1335 711.73 86.752C713.477 88.3561 714.394 90.4688 714.48 93.0898H709.56C709.502 91.7578 709.044 90.6621 708.185 89.8027C707.34 88.9434 706.258 88.5137 704.941 88.5137C703.25 88.5137 701.947 89.1296 701.03 90.3613C700.114 91.5788 699.648 93.4336 699.634 95.9258V96.7637C699.634 99.2845 700.085 101.168 700.987 102.414C701.904 103.646 703.222 104.262 704.941 104.262ZM726.724 79.1035V84.7539H730.827V88.6211H726.724V101.598C726.724 102.486 726.896 103.13 727.24 103.531C727.598 103.918 728.228 104.111 729.13 104.111C729.732 104.111 730.341 104.04 730.956 103.896V107.936C729.768 108.265 728.622 108.43 727.519 108.43C723.508 108.43 721.503 106.217 721.503 101.791V88.6211H717.679V84.7539H721.503V79.1035H726.724ZM772.697 76.7188V97.623C772.697 100.946 771.63 103.581 769.496 105.529C767.376 107.463 764.547 108.43 761.01 108.43C757.429 108.43 754.586 107.477 752.48 105.572C750.375 103.653 749.322 100.996 749.322 97.6016V76.7188H754.736V97.6445C754.736 99.7357 755.266 101.333 756.326 102.436C757.386 103.538 758.947 104.09 761.01 104.09C765.192 104.09 767.283 101.884 767.283 97.4727V76.7188H772.697ZM792.805 101.684C792.805 100.753 792.418 100.044 791.645 99.5566C790.885 99.0697 789.618 98.64 787.842 98.2676C786.066 97.8952 784.583 97.4225 783.395 96.8496C780.788 95.5892 779.484 93.763 779.484 91.3711C779.484 89.3659 780.33 87.6901 782.02 86.3438C783.71 84.9974 785.858 84.3242 788.465 84.3242C791.244 84.3242 793.485 85.0117 795.19 86.3867C796.908 87.7617 797.768 89.5449 797.768 91.7363H792.547C792.547 90.7337 792.175 89.903 791.43 89.2441C790.685 88.571 789.697 88.2344 788.465 88.2344C787.319 88.2344 786.381 88.4993 785.65 89.0293C784.934 89.5592 784.576 90.2682 784.576 91.1562C784.576 91.9583 784.913 92.5814 785.586 93.0254C786.259 93.4694 787.62 93.9206 789.668 94.3789C791.716 94.8229 793.32 95.36 794.481 95.9902C795.655 96.6061 796.522 97.3509 797.08 98.2246C797.653 99.0983 797.94 100.158 797.94 101.404C797.94 103.495 797.073 105.193 795.34 106.496C793.607 107.785 791.337 108.43 788.529 108.43C786.624 108.43 784.927 108.086 783.438 107.398C781.948 106.711 780.788 105.766 779.957 104.562C779.126 103.359 778.711 102.063 778.711 100.674H783.781C783.853 101.906 784.318 102.858 785.178 103.531C786.037 104.19 787.176 104.52 788.594 104.52C789.969 104.52 791.014 104.262 791.731 103.746C792.447 103.216 792.805 102.529 792.805 101.684Z" fill="white"/>
<path d="M301.79 166.467H308.529V168H299.905V153.781H301.79V166.467ZM310.705 162.619C310.705 161.584 310.907 160.653 311.311 159.826C311.721 158.999 312.287 158.361 313.01 157.912C313.739 157.463 314.569 157.238 315.5 157.238C316.939 157.238 318.101 157.736 318.987 158.732C319.879 159.729 320.325 161.053 320.325 162.707V162.834C320.325 163.863 320.126 164.787 319.729 165.607C319.338 166.421 318.775 167.056 318.039 167.512C317.31 167.967 316.47 168.195 315.52 168.195C314.088 168.195 312.926 167.697 312.034 166.701C311.148 165.705 310.705 164.387 310.705 162.746V162.619ZM312.522 162.834C312.522 164.006 312.792 164.947 313.332 165.656C313.879 166.366 314.608 166.721 315.52 166.721C316.438 166.721 317.167 166.363 317.707 165.646C318.248 164.924 318.518 163.915 318.518 162.619C318.518 161.46 318.241 160.523 317.688 159.807C317.141 159.084 316.412 158.723 315.5 158.723C314.608 158.723 313.889 159.077 313.342 159.787C312.795 160.497 312.522 161.512 312.522 162.834ZM328.498 159.055C328.224 159.009 327.928 158.986 327.609 158.986C326.424 158.986 325.62 159.491 325.197 160.5V168H323.39V157.434H325.148L325.177 158.654C325.77 157.71 326.61 157.238 327.697 157.238C328.048 157.238 328.315 157.284 328.498 157.375V159.055ZM335.157 168.195C333.725 168.195 332.559 167.727 331.661 166.789C330.762 165.845 330.313 164.585 330.313 163.01V162.678C330.313 161.63 330.512 160.695 330.909 159.875C331.313 159.048 331.873 158.404 332.589 157.941C333.311 157.473 334.093 157.238 334.932 157.238C336.306 157.238 337.374 157.691 338.136 158.596C338.897 159.501 339.278 160.796 339.278 162.482V163.234H332.12C332.146 164.276 332.449 165.119 333.028 165.764C333.614 166.402 334.356 166.721 335.255 166.721C335.893 166.721 336.433 166.59 336.876 166.33C337.318 166.07 337.706 165.725 338.038 165.295L339.141 166.154C338.256 167.515 336.928 168.195 335.157 168.195ZM334.932 158.723C334.203 158.723 333.591 158.99 333.096 159.523C332.602 160.051 332.296 160.793 332.179 161.75H337.471V161.613C337.419 160.695 337.172 159.986 336.729 159.484C336.287 158.977 335.688 158.723 334.932 158.723ZM343.877 157.434L343.926 158.605C344.701 157.694 345.745 157.238 347.061 157.238C348.538 157.238 349.544 157.805 350.078 158.938C350.43 158.43 350.885 158.02 351.445 157.707C352.012 157.395 352.679 157.238 353.447 157.238C355.765 157.238 356.943 158.465 356.982 160.92V168H355.176V161.027C355.176 160.272 355.003 159.709 354.658 159.338C354.313 158.96 353.734 158.771 352.92 158.771C352.249 158.771 351.693 158.973 351.25 159.377C350.807 159.774 350.55 160.311 350.479 160.988V168H348.662V161.076C348.662 159.54 347.91 158.771 346.406 158.771C345.221 158.771 344.411 159.276 343.975 160.285V168H342.168V157.434H343.877ZM368.241 168H366.434V157.434H368.241V168ZM366.287 154.631C366.287 154.338 366.375 154.09 366.551 153.889C366.733 153.687 367 153.586 367.352 153.586C367.704 153.586 367.97 153.687 368.153 153.889C368.335 154.09 368.426 154.338 368.426 154.631C368.426 154.924 368.335 155.168 368.153 155.363C367.97 155.559 367.704 155.656 367.352 155.656C367 155.656 366.733 155.559 366.551 155.363C366.375 155.168 366.287 154.924 366.287 154.631ZM380.867 162.834C380.867 164.442 380.499 165.738 379.763 166.721C379.028 167.704 378.031 168.195 376.775 168.195C375.492 168.195 374.483 167.788 373.748 166.975V172.062H371.941V157.434H373.591L373.679 158.605C374.415 157.694 375.437 157.238 376.746 157.238C378.015 157.238 379.018 157.717 379.754 158.674C380.496 159.631 380.867 160.962 380.867 162.668V162.834ZM379.06 162.629C379.06 161.438 378.806 160.497 378.298 159.807C377.791 159.117 377.094 158.771 376.209 158.771C375.115 158.771 374.295 159.257 373.748 160.227V165.275C374.288 166.239 375.115 166.721 376.228 166.721C377.094 166.721 377.781 166.379 378.289 165.695C378.803 165.005 379.06 163.983 379.06 162.629ZM390.124 165.197C390.124 164.709 389.938 164.331 389.567 164.064C389.203 163.791 388.561 163.557 387.643 163.361C386.732 163.166 386.006 162.932 385.466 162.658C384.932 162.385 384.535 162.059 384.274 161.682C384.02 161.304 383.893 160.855 383.893 160.334C383.893 159.468 384.258 158.736 384.987 158.137C385.723 157.538 386.66 157.238 387.8 157.238C388.998 157.238 389.968 157.548 390.71 158.166C391.458 158.785 391.833 159.576 391.833 160.539H390.016C390.016 160.044 389.805 159.618 389.382 159.26C388.965 158.902 388.438 158.723 387.8 158.723C387.142 158.723 386.628 158.866 386.257 159.152C385.886 159.439 385.7 159.813 385.7 160.275C385.7 160.712 385.873 161.04 386.218 161.262C386.563 161.483 387.184 161.695 388.083 161.896C388.988 162.098 389.72 162.339 390.28 162.619C390.84 162.899 391.253 163.238 391.52 163.635C391.794 164.025 391.93 164.504 391.93 165.07C391.93 166.014 391.553 166.773 390.798 167.346C390.042 167.912 389.063 168.195 387.858 168.195C387.012 168.195 386.263 168.046 385.612 167.746C384.961 167.447 384.45 167.03 384.079 166.496C383.714 165.956 383.532 165.373 383.532 164.748H385.339C385.371 165.354 385.612 165.835 386.061 166.193C386.517 166.545 387.116 166.721 387.858 166.721C388.542 166.721 389.089 166.584 389.499 166.311C389.915 166.031 390.124 165.66 390.124 165.197ZM401.607 166.955C400.904 167.782 399.872 168.195 398.512 168.195C397.385 168.195 396.526 167.87 395.934 167.219C395.348 166.561 395.051 165.591 395.045 164.309V157.434H396.852V164.26C396.852 165.861 397.503 166.662 398.805 166.662C400.185 166.662 401.103 166.148 401.559 165.119V157.434H403.365V168H401.646L401.607 166.955ZM408.618 157.434L408.667 158.605C409.442 157.694 410.487 157.238 411.802 157.238C413.28 157.238 414.286 157.805 414.82 158.938C415.171 158.43 415.627 158.02 416.187 157.707C416.753 157.395 417.42 157.238 418.189 157.238C420.506 157.238 421.685 158.465 421.724 160.92V168H419.917V161.027C419.917 160.272 419.745 159.709 419.4 159.338C419.055 158.96 418.475 158.771 417.661 158.771C416.991 158.771 416.434 158.973 415.991 159.377C415.549 159.774 415.292 160.311 415.22 160.988V168H413.404V161.076C413.404 159.54 412.652 158.771 411.148 158.771C409.963 158.771 409.152 159.276 408.716 160.285V168H406.909V157.434H408.618ZM430.58 162.629C430.58 161.008 430.964 159.706 431.732 158.723C432.5 157.733 433.506 157.238 434.75 157.238C435.987 157.238 436.966 157.661 437.689 158.508V153H439.496V168H437.836L437.748 166.867C437.025 167.753 436.019 168.195 434.73 168.195C433.506 168.195 432.507 167.694 431.732 166.691C430.964 165.689 430.58 164.38 430.58 162.766V162.629ZM432.386 162.834C432.386 164.032 432.634 164.969 433.129 165.646C433.623 166.324 434.307 166.662 435.179 166.662C436.325 166.662 437.162 166.148 437.689 165.119V160.266C437.149 159.27 436.319 158.771 435.199 158.771C434.313 158.771 433.623 159.113 433.129 159.797C432.634 160.48 432.386 161.493 432.386 162.834ZM442.63 162.619C442.63 161.584 442.831 160.653 443.235 159.826C443.645 158.999 444.212 158.361 444.934 157.912C445.664 157.463 446.494 157.238 447.425 157.238C448.863 157.238 450.026 157.736 450.911 158.732C451.803 159.729 452.249 161.053 452.249 162.707V162.834C452.249 163.863 452.05 164.787 451.653 165.607C451.262 166.421 450.699 167.056 449.964 167.512C449.234 167.967 448.395 168.195 447.444 168.195C446.012 168.195 444.85 167.697 443.958 166.701C443.072 165.705 442.63 164.387 442.63 162.746V162.619ZM444.446 162.834C444.446 164.006 444.716 164.947 445.257 165.656C445.803 166.366 446.533 166.721 447.444 166.721C448.362 166.721 449.091 166.363 449.632 165.646C450.172 164.924 450.442 163.915 450.442 162.619C450.442 161.46 450.165 160.523 449.612 159.807C449.065 159.084 448.336 158.723 447.425 158.723C446.533 158.723 445.813 159.077 445.266 159.787C444.72 160.497 444.446 161.512 444.446 162.834ZM457.277 168H455.471V153H457.277V168ZM460.499 162.619C460.499 161.584 460.701 160.653 461.105 159.826C461.515 158.999 462.081 158.361 462.804 157.912C463.533 157.463 464.363 157.238 465.294 157.238C466.733 157.238 467.895 157.736 468.78 158.732C469.672 159.729 470.118 161.053 470.118 162.707V162.834C470.118 163.863 469.92 164.787 469.523 165.607C469.132 166.421 468.569 167.056 467.833 167.512C467.104 167.967 466.264 168.195 465.314 168.195C463.881 168.195 462.719 167.697 461.827 166.701C460.942 165.705 460.499 164.387 460.499 162.746V162.619ZM462.316 162.834C462.316 164.006 462.586 164.947 463.126 165.656C463.673 166.366 464.402 166.721 465.314 166.721C466.232 166.721 466.961 166.363 467.501 165.646C468.042 164.924 468.312 163.915 468.312 162.619C468.312 161.46 468.035 160.523 467.482 159.807C466.935 159.084 466.206 158.723 465.294 158.723C464.402 158.723 463.683 159.077 463.136 159.787C462.589 160.497 462.316 161.512 462.316 162.834ZM478.291 159.055C478.018 159.009 477.722 158.986 477.403 158.986C476.218 158.986 475.414 159.491 474.991 160.5V168H473.184V157.434H474.942L474.971 158.654C475.564 157.71 476.403 157.238 477.491 157.238C477.842 157.238 478.109 157.284 478.291 157.375V159.055ZM492.675 165.197C492.675 164.709 492.489 164.331 492.118 164.064C491.753 163.791 491.112 163.557 490.194 163.361C489.283 163.166 488.557 162.932 488.016 162.658C487.483 162.385 487.085 162.059 486.825 161.682C486.571 161.304 486.444 160.855 486.444 160.334C486.444 159.468 486.809 158.736 487.538 158.137C488.274 157.538 489.211 157.238 490.35 157.238C491.548 157.238 492.518 157.548 493.261 158.166C494.009 158.785 494.384 159.576 494.384 160.539H492.567C492.567 160.044 492.356 159.618 491.932 159.26C491.516 158.902 490.988 158.723 490.35 158.723C489.693 158.723 489.178 158.866 488.807 159.152C488.436 159.439 488.251 159.813 488.251 160.275C488.251 160.712 488.423 161.04 488.768 161.262C489.113 161.483 489.735 161.695 490.634 161.896C491.539 162.098 492.271 162.339 492.831 162.619C493.391 162.899 493.804 163.238 494.071 163.635C494.345 164.025 494.481 164.504 494.481 165.07C494.481 166.014 494.104 166.773 493.348 167.346C492.593 167.912 491.613 168.195 490.409 168.195C489.563 168.195 488.814 168.046 488.163 167.746C487.512 167.447 487.001 167.03 486.63 166.496C486.265 165.956 486.083 165.373 486.083 164.748H487.889C487.922 165.354 488.163 165.835 488.612 166.193C489.068 166.545 489.667 166.721 490.409 166.721C491.093 166.721 491.639 166.584 492.05 166.311C492.466 166.031 492.675 165.66 492.675 165.197ZM499.598 168H497.791V157.434H499.598V168ZM497.645 154.631C497.645 154.338 497.732 154.09 497.908 153.889C498.09 153.687 498.357 153.586 498.709 153.586C499.061 153.586 499.327 153.687 499.51 153.889C499.692 154.09 499.783 154.338 499.783 154.631C499.783 154.924 499.692 155.168 499.51 155.363C499.327 155.559 499.061 155.656 498.709 155.656C498.357 155.656 498.09 155.559 497.908 155.363C497.732 155.168 497.645 154.924 497.645 154.631ZM505.749 154.875V157.434H507.722V158.83H505.749V165.383C505.749 165.806 505.837 166.125 506.013 166.34C506.189 166.548 506.488 166.652 506.911 166.652C507.12 166.652 507.406 166.613 507.771 166.535V168C507.295 168.13 506.833 168.195 506.384 168.195C505.577 168.195 504.968 167.951 504.558 167.463C504.148 166.975 503.943 166.281 503.943 165.383V158.83H502.019V157.434H503.943V154.875H505.749ZM522.925 168C522.821 167.792 522.737 167.421 522.671 166.887C521.832 167.759 520.829 168.195 519.664 168.195C518.622 168.195 517.766 167.902 517.095 167.316C516.431 166.724 516.099 165.975 516.099 165.07C516.099 163.97 516.516 163.117 517.349 162.512C518.189 161.9 519.367 161.594 520.884 161.594H522.642V160.764C522.642 160.132 522.453 159.631 522.076 159.26C521.698 158.882 521.142 158.693 520.406 158.693C519.761 158.693 519.221 158.856 518.785 159.182C518.349 159.507 518.13 159.901 518.13 160.363H516.314C516.314 159.836 516.5 159.328 516.871 158.84C517.248 158.345 517.756 157.954 518.394 157.668C519.039 157.382 519.745 157.238 520.513 157.238C521.731 157.238 522.684 157.544 523.375 158.156C524.065 158.762 524.423 159.598 524.449 160.666V165.529C524.449 166.499 524.573 167.271 524.82 167.844V168H522.925ZM519.927 166.623C520.494 166.623 521.031 166.477 521.539 166.184C522.046 165.891 522.414 165.51 522.642 165.041V162.873H521.226C519.013 162.873 517.906 163.521 517.906 164.816C517.906 165.383 518.095 165.826 518.472 166.145C518.85 166.464 519.335 166.623 519.927 166.623ZM529.78 157.434L529.829 158.605C530.604 157.694 531.649 157.238 532.964 157.238C534.442 157.238 535.447 157.805 535.981 158.938C536.333 158.43 536.789 158.02 537.348 157.707C537.915 157.395 538.582 157.238 539.35 157.238C541.668 157.238 542.846 158.465 542.886 160.92V168H541.079V161.027C541.079 160.272 540.906 159.709 540.561 159.338C540.216 158.96 539.637 158.771 538.823 158.771C538.152 158.771 537.596 158.973 537.153 159.377C536.71 159.774 536.453 160.311 536.382 160.988V168H534.565V161.076C534.565 159.54 533.813 158.771 532.309 158.771C531.124 158.771 530.314 159.276 529.878 160.285V168H528.071V157.434H529.78ZM550.805 168.195C549.372 168.195 548.207 167.727 547.309 166.789C546.41 165.845 545.961 164.585 545.961 163.01V162.678C545.961 161.63 546.159 160.695 546.557 159.875C546.96 159.048 547.52 158.404 548.236 157.941C548.959 157.473 549.74 157.238 550.58 157.238C551.954 157.238 553.021 157.691 553.783 158.596C554.545 159.501 554.926 160.796 554.926 162.482V163.234H547.768C547.794 164.276 548.096 165.119 548.676 165.764C549.262 166.402 550.004 166.721 550.902 166.721C551.54 166.721 552.081 166.59 552.523 166.33C552.966 166.07 553.354 165.725 553.686 165.295L554.789 166.154C553.904 167.515 552.576 168.195 550.805 168.195ZM550.58 158.723C549.851 158.723 549.239 158.99 548.744 159.523C548.249 160.051 547.943 160.793 547.826 161.75H553.119V161.613C553.067 160.695 552.82 159.986 552.377 159.484C551.934 158.977 551.335 158.723 550.58 158.723ZM560.277 154.875V157.434H562.249V158.83H560.277V165.383C560.277 165.806 560.364 166.125 560.54 166.34C560.716 166.548 561.015 166.652 561.439 166.652C561.647 166.652 561.933 166.613 562.298 166.535V168C561.823 168.13 561.361 168.195 560.911 168.195C560.104 168.195 559.495 167.951 559.085 167.463C558.675 166.975 558.47 166.281 558.47 165.383V158.83H556.546V157.434H558.47V154.875H560.277ZM565.11 170.832L564.084 170.129C564.696 169.276 565.015 168.397 565.041 167.492V165.861H566.809V167.277C566.809 167.935 566.646 168.592 566.321 169.25C566.002 169.908 565.598 170.435 565.11 170.832ZM579.893 166.721C580.538 166.721 581.101 166.525 581.583 166.135C582.065 165.744 582.331 165.256 582.384 164.67H584.093C584.06 165.275 583.852 165.852 583.468 166.398C583.083 166.945 582.569 167.382 581.925 167.707C581.287 168.033 580.609 168.195 579.893 168.195C578.455 168.195 577.309 167.717 576.456 166.76C575.609 165.796 575.186 164.481 575.186 162.814V162.512C575.186 161.483 575.375 160.568 575.753 159.768C576.13 158.967 576.671 158.345 577.374 157.902C578.083 157.46 578.92 157.238 579.884 157.238C581.068 157.238 582.052 157.593 582.833 158.303C583.621 159.012 584.04 159.934 584.093 161.066H582.384C582.331 160.383 582.071 159.823 581.602 159.387C581.14 158.944 580.567 158.723 579.884 158.723C578.966 158.723 578.253 159.055 577.745 159.719C577.244 160.376 576.993 161.33 576.993 162.58V162.922C576.993 164.139 577.244 165.077 577.745 165.734C578.246 166.392 578.962 166.721 579.893 166.721ZM586.445 162.619C586.445 161.584 586.647 160.653 587.051 159.826C587.461 158.999 588.027 158.361 588.75 157.912C589.479 157.463 590.309 157.238 591.24 157.238C592.679 157.238 593.841 157.736 594.727 158.732C595.618 159.729 596.064 161.053 596.064 162.707V162.834C596.064 163.863 595.866 164.787 595.469 165.607C595.078 166.421 594.515 167.056 593.779 167.512C593.05 167.967 592.21 168.195 591.26 168.195C589.827 168.195 588.665 167.697 587.773 166.701C586.888 165.705 586.445 164.387 586.445 162.746V162.619ZM588.262 162.834C588.262 164.006 588.532 164.947 589.072 165.656C589.619 166.366 590.348 166.721 591.26 166.721C592.178 166.721 592.907 166.363 593.447 165.646C593.988 164.924 594.258 163.915 594.258 162.619C594.258 161.46 593.981 160.523 593.428 159.807C592.881 159.084 592.152 158.723 591.24 158.723C590.348 158.723 589.629 159.077 589.082 159.787C588.535 160.497 588.262 161.512 588.262 162.834ZM600.839 157.434L600.898 158.762C601.705 157.746 602.76 157.238 604.062 157.238C606.295 157.238 607.421 158.498 607.441 161.018V168H605.634V161.008C605.627 160.246 605.452 159.683 605.107 159.318C604.768 158.954 604.237 158.771 603.515 158.771C602.929 158.771 602.415 158.928 601.972 159.24C601.529 159.553 601.184 159.963 600.937 160.471V168H599.13V157.434H600.839ZM617.118 165.197C617.118 164.709 616.932 164.331 616.561 164.064C616.196 163.791 615.555 163.557 614.637 163.361C613.726 163.166 613 162.932 612.459 162.658C611.925 162.385 611.528 162.059 611.268 161.682C611.014 161.304 610.887 160.855 610.887 160.334C610.887 159.468 611.252 158.736 611.981 158.137C612.717 157.538 613.654 157.238 614.793 157.238C615.991 157.238 616.961 157.548 617.703 158.166C618.452 158.785 618.827 159.576 618.827 160.539H617.01C617.01 160.044 616.799 159.618 616.375 159.26C615.959 158.902 615.431 158.723 614.793 158.723C614.136 158.723 613.621 158.866 613.25 159.152C612.879 159.439 612.694 159.813 612.694 160.275C612.694 160.712 612.866 161.04 613.211 161.262C613.556 161.483 614.178 161.695 615.077 161.896C615.981 162.098 616.714 162.339 617.274 162.619C617.834 162.899 618.247 163.238 618.514 163.635C618.787 164.025 618.924 164.504 618.924 165.07C618.924 166.014 618.547 166.773 617.791 167.346C617.036 167.912 616.056 168.195 614.852 168.195C614.006 168.195 613.257 168.046 612.606 167.746C611.955 167.447 611.444 167.03 611.073 166.496C610.708 165.956 610.526 165.373 610.526 164.748H612.332C612.365 165.354 612.606 165.835 613.055 166.193C613.511 166.545 614.11 166.721 614.852 166.721C615.536 166.721 616.082 166.584 616.493 166.311C616.909 166.031 617.118 165.66 617.118 165.197ZM626.462 168.195C625.03 168.195 623.865 167.727 622.966 166.789C622.068 165.845 621.619 164.585 621.619 163.01V162.678C621.619 161.63 621.817 160.695 622.214 159.875C622.618 159.048 623.178 158.404 623.894 157.941C624.617 157.473 625.398 157.238 626.238 157.238C627.612 157.238 628.679 157.691 629.441 158.596C630.203 159.501 630.584 160.796 630.584 162.482V163.234H623.425C623.451 164.276 623.754 165.119 624.334 165.764C624.92 166.402 625.662 166.721 626.56 166.721C627.198 166.721 627.739 166.59 628.181 166.33C628.624 166.07 629.011 165.725 629.343 165.295L630.447 166.154C629.561 167.515 628.233 168.195 626.462 168.195ZM626.238 158.723C625.509 158.723 624.897 158.99 624.402 159.523C623.907 160.051 623.601 160.793 623.484 161.75H628.777V161.613C628.725 160.695 628.477 159.986 628.035 159.484C627.592 158.977 626.993 158.723 626.238 158.723ZM637.721 166.721C638.366 166.721 638.929 166.525 639.411 166.135C639.893 165.744 640.16 165.256 640.212 164.67H641.921C641.888 165.275 641.68 165.852 641.296 166.398C640.912 166.945 640.397 167.382 639.753 167.707C639.115 168.033 638.438 168.195 637.721 168.195C636.283 168.195 635.137 167.717 634.284 166.76C633.438 165.796 633.014 164.481 633.014 162.814V162.512C633.014 161.483 633.203 160.568 633.581 159.768C633.958 158.967 634.499 158.345 635.202 157.902C635.912 157.46 636.748 157.238 637.712 157.238C638.897 157.238 639.88 157.593 640.661 158.303C641.449 159.012 641.869 159.934 641.921 161.066H640.212C640.16 160.383 639.899 159.823 639.43 159.387C638.968 158.944 638.395 158.723 637.712 158.723C636.794 158.723 636.081 159.055 635.573 159.719C635.072 160.376 634.821 161.33 634.821 162.58V162.922C634.821 164.139 635.072 165.077 635.573 165.734C636.074 166.392 636.79 166.721 637.721 166.721ZM647.203 154.875V157.434H649.176V158.83H647.203V165.383C647.203 165.806 647.291 166.125 647.467 166.34C647.643 166.548 647.942 166.652 648.365 166.652C648.574 166.652 648.86 166.613 649.225 166.535V168C648.749 168.13 648.287 168.195 647.838 168.195C647.031 168.195 646.422 167.951 646.012 167.463C645.602 166.975 645.396 166.281 645.396 165.383V158.83H643.473V157.434H645.396V154.875H647.203ZM656.48 168.195C655.047 168.195 653.882 167.727 652.984 166.789C652.085 165.845 651.636 164.585 651.636 163.01V162.678C651.636 161.63 651.834 160.695 652.232 159.875C652.635 159.048 653.195 158.404 653.911 157.941C654.634 157.473 655.415 157.238 656.255 157.238C657.629 157.238 658.696 157.691 659.458 158.596C660.22 159.501 660.601 160.796 660.601 162.482V163.234H653.443C653.469 164.276 653.771 165.119 654.351 165.764C654.937 166.402 655.679 166.721 656.577 166.721C657.215 166.721 657.756 166.59 658.198 166.33C658.641 166.07 659.029 165.725 659.361 165.295L660.464 166.154C659.579 167.515 658.251 168.195 656.48 168.195ZM656.255 158.723C655.526 158.723 654.914 158.99 654.419 159.523C653.924 160.051 653.618 160.793 653.501 161.75H658.794V161.613C658.742 160.695 658.495 159.986 658.052 159.484C657.609 158.977 657.01 158.723 656.255 158.723ZM665.952 154.875V157.434H667.924V158.83H665.952V165.383C665.952 165.806 666.039 166.125 666.215 166.34C666.391 166.548 666.69 166.652 667.114 166.652C667.322 166.652 667.608 166.613 667.973 166.535V168C667.498 168.13 667.036 168.195 666.586 168.195C665.779 168.195 665.17 167.951 664.76 167.463C664.35 166.975 664.145 166.281 664.145 165.383V158.83H662.221V157.434H664.145V154.875H665.952ZM677.367 166.955C676.664 167.782 675.632 168.195 674.271 168.195C673.145 168.195 672.285 167.87 671.693 167.219C671.107 166.561 670.811 165.591 670.804 164.309V157.434H672.611V164.26C672.611 165.861 673.262 166.662 674.564 166.662C675.944 166.662 676.862 166.148 677.318 165.119V157.434H679.125V168H677.406L677.367 166.955ZM687.786 159.055C687.512 159.009 687.216 158.986 686.897 158.986C685.712 158.986 684.908 159.491 684.485 160.5V168H682.678V157.434H684.436L684.466 158.654C685.058 157.71 685.898 157.238 686.985 157.238C687.337 157.238 687.604 157.284 687.786 157.375V159.055ZM702.54 168C702.436 167.792 702.351 167.421 702.286 166.887C701.446 167.759 700.444 168.195 699.279 168.195C698.237 168.195 697.381 167.902 696.71 167.316C696.046 166.724 695.714 165.975 695.714 165.07C695.714 163.97 696.131 163.117 696.964 162.512C697.804 161.9 698.982 161.594 700.499 161.594H702.257V160.764C702.257 160.132 702.068 159.631 701.691 159.26C701.313 158.882 700.756 158.693 700.021 158.693C699.376 158.693 698.836 158.856 698.4 159.182C697.963 159.507 697.745 159.901 697.745 160.363H695.929C695.929 159.836 696.114 159.328 696.486 158.84C696.863 158.345 697.371 157.954 698.009 157.668C698.654 157.382 699.36 157.238 700.128 157.238C701.346 157.238 702.299 157.544 702.989 158.156C703.68 158.762 704.038 159.598 704.064 160.666V165.529C704.064 166.499 704.187 167.271 704.435 167.844V168H702.54ZM699.542 166.623C700.109 166.623 700.646 166.477 701.154 166.184C701.661 165.891 702.029 165.51 702.257 165.041V162.873H700.841C698.627 162.873 697.521 163.521 697.521 164.816C697.521 165.383 697.709 165.826 698.087 166.145C698.465 166.464 698.95 166.623 699.542 166.623ZM707.256 162.629C707.256 161.008 707.64 159.706 708.409 158.723C709.177 157.733 710.183 157.238 711.426 157.238C712.663 157.238 713.643 157.661 714.366 158.508V153H716.172V168H714.512L714.424 166.867C713.702 167.753 712.696 168.195 711.407 168.195C710.183 168.195 709.183 167.694 708.409 166.691C707.64 165.689 707.256 164.38 707.256 162.766V162.629ZM709.063 162.834C709.063 164.032 709.31 164.969 709.805 165.646C710.3 166.324 710.983 166.662 711.856 166.662C713.002 166.662 713.838 166.148 714.366 165.119V160.266C713.825 159.27 712.995 158.771 711.875 158.771C710.99 158.771 710.3 159.113 709.805 159.797C709.31 160.48 709.063 161.493 709.063 162.834ZM721.748 168H719.941V157.434H721.748V168ZM719.795 154.631C719.795 154.338 719.882 154.09 720.058 153.889C720.24 153.687 720.507 153.586 720.859 153.586C721.211 153.586 721.477 153.687 721.66 153.889C721.842 154.09 721.933 154.338 721.933 154.631C721.933 154.924 721.842 155.168 721.66 155.363C721.477 155.559 721.211 155.656 720.859 155.656C720.507 155.656 720.24 155.559 720.058 155.363C719.882 155.168 719.795 154.924 719.795 154.631ZM734.374 162.834C734.374 164.442 734.006 165.738 733.27 166.721C732.535 167.704 731.539 168.195 730.282 168.195C728.999 168.195 727.99 167.788 727.255 166.975V172.062H725.448V157.434H727.098L727.186 158.605C727.922 157.694 728.944 157.238 730.253 157.238C731.522 157.238 732.525 157.717 733.261 158.674C734.003 159.631 734.374 160.962 734.374 162.668V162.834ZM732.567 162.629C732.567 161.438 732.313 160.497 731.805 159.807C731.298 159.117 730.601 158.771 729.716 158.771C728.622 158.771 727.802 159.257 727.255 160.227V165.275C727.795 166.239 728.622 166.721 729.735 166.721C730.601 166.721 731.288 166.379 731.796 165.695C732.31 165.005 732.567 163.983 732.567 162.629ZM739.441 168H737.635V157.434H739.441V168ZM737.488 154.631C737.488 154.338 737.576 154.09 737.752 153.889C737.934 153.687 738.201 153.586 738.553 153.586C738.904 153.586 739.171 153.687 739.354 153.889C739.536 154.09 739.627 154.338 739.627 154.631C739.627 154.924 739.536 155.168 739.354 155.363C739.171 155.559 738.904 155.656 738.553 155.656C738.201 155.656 737.934 155.559 737.752 155.363C737.576 155.168 737.488 154.924 737.488 154.631ZM749.294 165.197C749.294 164.709 749.109 164.331 748.737 164.064C748.373 163.791 747.732 163.557 746.814 163.361C745.902 163.166 745.176 162.932 744.636 162.658C744.102 162.385 743.705 162.059 743.445 161.682C743.191 161.304 743.064 160.855 743.064 160.334C743.064 159.468 743.428 158.736 744.157 158.137C744.893 157.538 745.831 157.238 746.97 157.238C748.168 157.238 749.138 157.548 749.88 158.166C750.629 158.785 751.003 159.576 751.003 160.539H749.187C749.187 160.044 748.975 159.618 748.552 159.26C748.135 158.902 747.608 158.723 746.97 158.723C746.312 158.723 745.798 158.866 745.427 159.152C745.056 159.439 744.87 159.813 744.87 160.275C744.87 160.712 745.043 161.04 745.388 161.262C745.733 161.483 746.355 161.695 747.253 161.896C748.158 162.098 748.89 162.339 749.45 162.619C750.01 162.899 750.424 163.238 750.691 163.635C750.964 164.025 751.101 164.504 751.101 165.07C751.101 166.014 750.723 166.773 749.968 167.346C749.213 167.912 748.233 168.195 747.029 168.195C746.182 168.195 745.433 168.046 744.782 167.746C744.131 167.447 743.62 167.03 743.249 166.496C742.885 165.956 742.702 165.373 742.702 164.748H744.509C744.542 165.354 744.782 165.835 745.232 166.193C745.687 166.545 746.286 166.721 747.029 166.721C747.712 166.721 748.259 166.584 748.669 166.311C749.086 166.031 749.294 165.66 749.294 165.197ZM758.493 166.721C759.137 166.721 759.7 166.525 760.182 166.135C760.664 165.744 760.931 165.256 760.983 164.67H762.692C762.659 165.275 762.451 165.852 762.067 166.398C761.683 166.945 761.168 167.382 760.524 167.707C759.886 168.033 759.209 168.195 758.493 168.195C757.054 168.195 755.908 167.717 755.055 166.76C754.209 165.796 753.786 164.481 753.786 162.814V162.512C753.786 161.483 753.974 160.568 754.352 159.768C754.73 158.967 755.27 158.345 755.973 157.902C756.683 157.46 757.519 157.238 758.483 157.238C759.668 157.238 760.651 157.593 761.432 158.303C762.22 159.012 762.64 159.934 762.692 161.066H760.983C760.931 160.383 760.67 159.823 760.202 159.387C759.739 158.944 759.166 158.723 758.483 158.723C757.565 158.723 756.852 159.055 756.344 159.719C755.843 160.376 755.592 161.33 755.592 162.58V162.922C755.592 164.139 755.843 165.077 756.344 165.734C756.845 166.392 757.562 166.721 758.493 166.721ZM767.486 168H765.679V157.434H767.486V168ZM765.533 154.631C765.533 154.338 765.621 154.09 765.796 153.889C765.979 153.687 766.246 153.586 766.597 153.586C766.949 153.586 767.216 153.687 767.398 153.889C767.58 154.09 767.671 154.338 767.671 154.631C767.671 154.924 767.58 155.168 767.398 155.363C767.216 155.559 766.949 155.656 766.597 155.656C766.246 155.656 765.979 155.559 765.796 155.363C765.621 155.168 765.533 154.924 765.533 154.631ZM772.895 157.434L772.954 158.762C773.761 157.746 774.816 157.238 776.118 157.238C778.351 157.238 779.477 158.498 779.497 161.018V168H777.69V161.008C777.684 160.246 777.508 159.683 777.163 159.318C776.824 158.954 776.294 158.771 775.571 158.771C774.985 158.771 774.471 158.928 774.028 159.24C773.585 159.553 773.24 159.963 772.993 160.471V168H771.186V157.434H772.895ZM782.592 162.629C782.592 160.982 782.973 159.673 783.734 158.703C784.496 157.727 785.505 157.238 786.762 157.238C788.051 157.238 789.057 157.694 789.779 158.605L789.867 157.434H791.518V167.746C791.518 169.113 791.111 170.191 790.297 170.979C789.49 171.766 788.402 172.16 787.035 172.16C786.273 172.16 785.528 171.997 784.799 171.672C784.07 171.346 783.513 170.9 783.129 170.334L784.066 169.25C784.841 170.207 785.788 170.686 786.908 170.686C787.787 170.686 788.471 170.438 788.959 169.943C789.454 169.449 789.701 168.752 789.701 167.854V166.945C788.979 167.779 787.992 168.195 786.742 168.195C785.505 168.195 784.503 167.697 783.734 166.701C782.973 165.705 782.592 164.348 782.592 162.629ZM784.408 162.834C784.408 164.025 784.652 164.963 785.141 165.646C785.629 166.324 786.312 166.662 787.191 166.662C788.331 166.662 789.167 166.145 789.701 165.109V160.285C789.148 159.276 788.318 158.771 787.211 158.771C786.332 158.771 785.645 159.113 785.15 159.797C784.656 160.48 784.408 161.493 784.408 162.834ZM805.198 168.195C803.765 168.195 802.6 167.727 801.702 166.789C800.803 165.845 800.354 164.585 800.354 163.01V162.678C800.354 161.63 800.552 160.695 800.95 159.875C801.353 159.048 801.913 158.404 802.629 157.941C803.352 157.473 804.133 157.238 804.973 157.238C806.347 157.238 807.414 157.691 808.176 158.596C808.938 159.501 809.319 160.796 809.319 162.482V163.234H802.161C802.187 164.276 802.489 165.119 803.069 165.764C803.655 166.402 804.397 166.721 805.295 166.721C805.933 166.721 806.474 166.59 806.916 166.33C807.359 166.07 807.746 165.725 808.078 165.295L809.182 166.154C808.297 167.515 806.968 168.195 805.198 168.195ZM804.973 158.723C804.244 158.723 803.632 158.99 803.137 159.523C802.642 160.051 802.336 160.793 802.219 161.75H807.512V161.613C807.46 160.695 807.213 159.986 806.77 159.484C806.327 158.977 805.728 158.723 804.973 158.723ZM814.181 168H812.375V153H814.181V168ZM819.845 168H818.038V157.434H819.845V168ZM817.891 154.631C817.891 154.338 817.979 154.09 818.155 153.889C818.337 153.687 818.604 153.586 818.956 153.586C819.307 153.586 819.574 153.687 819.757 153.889C819.939 154.09 820.03 154.338 820.03 154.631C820.03 154.924 819.939 155.168 819.757 155.363C819.574 155.559 819.307 155.656 818.956 155.656C818.604 155.656 818.337 155.559 818.155 155.363C817.979 155.168 817.891 154.924 817.891 154.631ZM825.996 154.875V157.434H827.969V158.83H825.996V165.383C825.996 165.806 826.084 166.125 826.26 166.34C826.436 166.548 826.735 166.652 827.158 166.652C827.367 166.652 827.653 166.613 828.018 166.535V168C827.542 168.13 827.08 168.195 826.631 168.195C825.824 168.195 825.215 167.951 824.805 167.463C824.395 166.975 824.189 166.281 824.189 165.383V158.83H822.266V157.434H824.189V154.875H825.996ZM830.829 170.832L829.804 170.129C830.416 169.276 830.735 168.397 830.761 167.492V165.861H832.529V167.277C832.529 167.935 832.366 168.592 832.04 169.25C831.721 169.908 831.318 170.435 830.829 170.832ZM847.527 165.197C847.527 164.709 847.341 164.331 846.97 164.064C846.606 163.791 845.964 163.557 845.046 163.361C844.135 163.166 843.409 162.932 842.869 162.658C842.335 162.385 841.938 162.059 841.677 161.682C841.423 161.304 841.296 160.855 841.296 160.334C841.296 159.468 841.661 158.736 842.39 158.137C843.126 157.538 844.063 157.238 845.203 157.238C846.401 157.238 847.371 157.548 848.113 158.166C848.862 158.785 849.236 159.576 849.236 160.539H847.419C847.419 160.044 847.208 159.618 846.785 159.26C846.368 158.902 845.841 158.723 845.203 158.723C844.545 158.723 844.031 158.866 843.66 159.152C843.289 159.439 843.103 159.813 843.103 160.275C843.103 160.712 843.276 161.04 843.621 161.262C843.966 161.483 844.587 161.695 845.486 161.896C846.391 162.098 847.123 162.339 847.683 162.619C848.243 162.899 848.656 163.238 848.923 163.635C849.197 164.025 849.334 164.504 849.334 165.07C849.334 166.014 848.956 166.773 848.201 167.346C847.446 167.912 846.466 168.195 845.261 168.195C844.415 168.195 843.666 168.046 843.015 167.746C842.364 167.447 841.853 167.03 841.482 166.496C841.117 165.956 840.935 165.373 840.935 164.748H842.742C842.774 165.354 843.015 165.835 843.464 166.193C843.92 166.545 844.519 166.721 845.261 166.721C845.945 166.721 846.492 166.584 846.902 166.311C847.319 166.031 847.527 165.66 847.527 165.197ZM856.872 168.195C855.44 168.195 854.274 167.727 853.376 166.789C852.477 165.845 852.028 164.585 852.028 163.01V162.678C852.028 161.63 852.227 160.695 852.624 159.875C853.027 159.048 853.587 158.404 854.304 157.941C855.026 157.473 855.807 157.238 856.647 157.238C858.021 157.238 859.089 157.691 859.85 158.596C860.612 159.501 860.993 160.796 860.993 162.482V163.234H853.835C853.861 164.276 854.164 165.119 854.743 165.764C855.329 166.402 856.071 166.721 856.97 166.721C857.608 166.721 858.148 166.59 858.591 166.33C859.033 166.07 859.421 165.725 859.753 165.295L860.856 166.154C859.971 167.515 858.643 168.195 856.872 168.195ZM856.647 158.723C855.918 158.723 855.306 158.99 854.811 159.523C854.317 160.051 854.011 160.793 853.893 161.75H859.186V161.613C859.134 160.695 858.887 159.986 858.444 159.484C858.001 158.977 857.402 158.723 856.647 158.723ZM863.453 162.629C863.453 161.008 863.837 159.706 864.605 158.723C865.374 157.733 866.38 157.238 867.623 157.238C868.86 157.238 869.84 157.661 870.562 158.508V153H872.369V168H870.709L870.621 166.867C869.898 167.753 868.893 168.195 867.604 168.195C866.38 168.195 865.38 167.694 864.605 166.691C863.837 165.689 863.453 164.38 863.453 162.766V162.629ZM865.26 162.834C865.26 164.032 865.507 164.969 866.002 165.646C866.497 166.324 867.18 166.662 868.053 166.662C869.199 166.662 870.035 166.148 870.562 165.119V160.266C870.022 159.27 869.192 158.771 868.072 158.771C867.187 158.771 866.497 159.113 866.002 159.797C865.507 160.48 865.26 161.493 865.26 162.834ZM881.303 162.629C881.303 161.008 881.687 159.706 882.455 158.723C883.224 157.733 884.23 157.238 885.473 157.238C886.71 157.238 887.69 157.661 888.412 158.508V153H890.219V168H888.559L888.471 166.867C887.748 167.753 886.743 168.195 885.453 168.195C884.23 168.195 883.23 167.694 882.455 166.691C881.687 165.689 881.303 164.38 881.303 162.766V162.629ZM883.11 162.834C883.11 164.032 883.357 164.969 883.852 165.646C884.347 166.324 885.03 166.662 885.903 166.662C887.049 166.662 887.885 166.148 888.412 165.119V160.266C887.872 159.27 887.042 158.771 885.922 158.771C885.037 158.771 884.347 159.113 883.852 159.797C883.357 160.48 883.11 161.493 883.11 162.834ZM893.353 162.619C893.353 161.584 893.555 160.653 893.959 159.826C894.369 158.999 894.935 158.361 895.658 157.912C896.387 157.463 897.217 157.238 898.148 157.238C899.587 157.238 900.749 157.736 901.634 158.732C902.526 159.729 902.972 161.053 902.972 162.707V162.834C902.972 163.863 902.774 164.787 902.377 165.607C901.986 166.421 901.423 167.056 900.687 167.512C899.958 167.967 899.118 168.195 898.168 168.195C896.735 168.195 895.573 167.697 894.681 166.701C893.796 165.705 893.353 164.387 893.353 162.746V162.619ZM895.169 162.834C895.169 164.006 895.44 164.947 895.98 165.656C896.527 166.366 897.256 166.721 898.168 166.721C899.086 166.721 899.815 166.363 900.355 165.646C900.895 164.924 901.166 163.915 901.166 162.619C901.166 161.46 900.889 160.523 900.336 159.807C899.789 159.084 899.059 158.723 898.148 158.723C897.256 158.723 896.537 159.077 895.99 159.787C895.443 160.497 895.169 161.512 895.169 162.834ZM916.184 168.195C914.751 168.195 913.586 167.727 912.688 166.789C911.789 165.845 911.34 164.585 911.34 163.01V162.678C911.34 161.63 911.538 160.695 911.936 159.875C912.339 159.048 912.899 158.404 913.615 157.941C914.338 157.473 915.119 157.238 915.959 157.238C917.333 157.238 918.4 157.691 919.162 158.596C919.924 159.501 920.305 160.796 920.305 162.482V163.234H913.146C913.173 164.276 913.475 165.119 914.055 165.764C914.641 166.402 915.383 166.721 916.281 166.721C916.919 166.721 917.46 166.59 917.902 166.33C918.345 166.07 918.732 165.725 919.064 165.295L920.168 166.154C919.283 167.515 917.954 168.195 916.184 168.195ZM915.959 158.723C915.23 158.723 914.618 158.99 914.123 159.523C913.628 160.051 913.322 160.793 913.205 161.75H918.498V161.613C918.446 160.695 918.199 159.986 917.756 159.484C917.313 158.977 916.714 158.723 915.959 158.723ZM925.167 168H923.361V157.434H925.167V168ZM923.214 154.631C923.214 154.338 923.302 154.09 923.478 153.889C923.66 153.687 923.927 153.586 924.279 153.586C924.63 153.586 924.897 153.687 925.079 153.889C925.262 154.09 925.353 154.338 925.353 154.631C925.353 154.924 925.262 155.168 925.079 155.363C924.897 155.559 924.63 155.656 924.279 155.656C923.927 155.656 923.66 155.559 923.478 155.363C923.302 155.168 923.214 154.924 923.214 154.631ZM935.391 166.955C934.688 167.782 933.656 168.195 932.295 168.195C931.169 168.195 930.31 167.87 929.717 167.219C929.131 166.561 928.835 165.591 928.828 164.309V157.434H930.635V164.26C930.635 165.861 931.286 166.662 932.588 166.662C933.968 166.662 934.886 166.148 935.342 165.119V157.434H937.149V168H935.43L935.391 166.955ZM946.855 165.197C946.855 164.709 946.669 164.331 946.298 164.064C945.934 163.791 945.293 163.557 944.375 163.361C943.463 163.166 942.737 162.932 942.197 162.658C941.663 162.385 941.266 162.059 941.005 161.682C940.752 161.304 940.625 160.855 940.625 160.334C940.625 159.468 940.989 158.736 941.718 158.137C942.454 157.538 943.391 157.238 944.531 157.238C945.729 157.238 946.699 157.548 947.441 158.166C948.19 158.785 948.564 159.576 948.564 160.539H946.748C946.748 160.044 946.536 159.618 946.113 159.26C945.696 158.902 945.169 158.723 944.531 158.723C943.873 158.723 943.359 158.866 942.988 159.152C942.617 159.439 942.431 159.813 942.431 160.275C942.431 160.712 942.604 161.04 942.949 161.262C943.294 161.483 943.916 161.695 944.814 161.896C945.719 162.098 946.451 162.339 947.011 162.619C947.571 162.899 947.985 163.238 948.252 163.635C948.525 164.025 948.662 164.504 948.662 165.07C948.662 166.014 948.284 166.773 947.529 167.346C946.774 167.912 945.794 168.195 944.589 168.195C943.743 168.195 942.994 168.046 942.343 167.746C941.692 167.447 941.181 167.03 940.81 166.496C940.446 165.956 940.263 165.373 940.263 164.748H942.07C942.102 165.354 942.343 165.835 942.793 166.193C943.248 166.545 943.847 166.721 944.589 166.721C945.273 166.721 945.82 166.584 946.23 166.311C946.647 166.031 946.855 165.66 946.855 165.197ZM953.514 157.434L953.563 158.605C954.338 157.694 955.383 157.238 956.698 157.238C958.176 157.238 959.182 157.805 959.716 158.938C960.067 158.43 960.523 158.02 961.083 157.707C961.649 157.395 962.317 157.238 963.085 157.238C965.402 157.238 966.581 158.465 966.62 160.92V168H964.813V161.027C964.813 160.272 964.641 159.709 964.296 159.338C963.951 158.96 963.371 158.771 962.557 158.771C961.887 158.771 961.33 158.973 960.888 159.377C960.445 159.774 960.188 160.311 960.116 160.988V168H958.3V161.076C958.3 159.54 957.548 158.771 956.044 158.771C954.859 158.771 954.048 159.276 953.612 160.285V168H951.805V157.434H953.514ZM969.676 162.619C969.676 161.584 969.878 160.653 970.281 159.826C970.691 158.999 971.258 158.361 971.98 157.912C972.71 157.463 973.54 157.238 974.471 157.238C975.91 157.238 977.072 157.736 977.957 158.732C978.849 159.729 979.295 161.053 979.295 162.707V162.834C979.295 163.863 979.096 164.787 978.699 165.607C978.309 166.421 977.745 167.056 977.01 167.512C976.281 167.967 975.441 168.195 974.49 168.195C973.058 168.195 971.896 167.697 971.004 166.701C970.118 165.705 969.676 164.387 969.676 162.746V162.619ZM971.492 162.834C971.492 164.006 971.762 164.947 972.303 165.656C972.85 166.366 973.579 166.721 974.49 166.721C975.408 166.721 976.137 166.363 976.678 165.646C977.218 164.924 977.488 163.915 977.488 162.619C977.488 161.46 977.212 160.523 976.658 159.807C976.111 159.084 975.382 158.723 974.471 158.723C973.579 158.723 972.859 159.077 972.312 159.787C971.766 160.497 971.492 161.512 971.492 162.834ZM981.921 162.629C981.921 161.008 982.305 159.706 983.073 158.723C983.842 157.733 984.848 157.238 986.091 157.238C987.328 157.238 988.308 157.661 989.03 158.508V153H990.837V168H989.177L989.089 166.867C988.366 167.753 987.361 168.195 986.071 168.195C984.848 168.195 983.848 167.694 983.073 166.691C982.305 165.689 981.921 164.38 981.921 162.766V162.629ZM983.728 162.834C983.728 164.032 983.975 164.969 984.47 165.646C984.965 166.324 985.648 166.662 986.521 166.662C987.667 166.662 988.503 166.148 989.03 165.119V160.266C988.49 159.27 987.66 158.771 986.54 158.771C985.655 158.771 984.965 159.113 984.47 159.797C983.975 160.48 983.728 161.493 983.728 162.834ZM1002.66 154.875V157.434H1004.63V158.83H1002.66V165.383C1002.66 165.806 1002.75 166.125 1002.93 166.34C1003.1 166.548 1003.4 166.652 1003.82 166.652C1004.03 166.652 1004.32 166.613 1004.68 166.535V168C1004.21 168.13 1003.75 168.195 1003.3 168.195C1002.49 168.195 1001.88 167.951 1001.47 167.463C1001.06 166.975 1000.86 166.281 1000.86 165.383V158.83H998.931V157.434H1000.86V154.875H1002.66ZM1011.94 168.195C1010.51 168.195 1009.34 167.727 1008.44 166.789C1007.54 165.845 1007.09 164.585 1007.09 163.01V162.678C1007.09 161.63 1007.29 160.695 1007.69 159.875C1008.09 159.048 1008.65 158.404 1009.37 157.941C1010.09 157.473 1010.87 157.238 1011.71 157.238C1013.09 157.238 1014.16 157.691 1014.92 158.596C1015.68 159.501 1016.06 160.796 1016.06 162.482V163.234H1008.9C1008.93 164.276 1009.23 165.119 1009.81 165.764C1010.4 166.402 1011.14 166.721 1012.04 166.721C1012.67 166.721 1013.21 166.59 1013.66 166.33C1014.1 166.07 1014.49 165.725 1014.82 165.295L1015.92 166.154C1015.04 167.515 1013.71 168.195 1011.94 168.195ZM1011.71 158.723C1010.98 158.723 1010.37 158.99 1009.88 159.523C1009.38 160.051 1009.08 160.793 1008.96 161.75H1014.25V161.613C1014.2 160.695 1013.95 159.986 1013.51 159.484C1013.07 158.977 1012.47 158.723 1011.71 158.723ZM1020.66 157.434L1020.71 158.605C1021.48 157.694 1022.53 157.238 1023.84 157.238C1025.32 157.238 1026.33 157.805 1026.86 158.938C1027.21 158.43 1027.67 158.02 1028.23 157.707C1028.79 157.395 1029.46 157.238 1030.23 157.238C1032.55 157.238 1033.72 158.465 1033.76 160.92V168H1031.96V161.027C1031.96 160.272 1031.78 159.709 1031.44 159.338C1031.09 158.96 1030.51 158.771 1029.7 158.771C1029.03 158.771 1028.47 158.973 1028.03 159.377C1027.59 159.774 1027.33 160.311 1027.26 160.988V168H1025.44V161.076C1025.44 159.54 1024.69 158.771 1023.19 158.771C1022 158.771 1021.19 159.276 1020.76 160.285V168H1018.95V157.434H1020.66ZM1046.22 162.834C1046.22 164.442 1045.86 165.738 1045.12 166.721C1044.38 167.704 1043.39 168.195 1042.13 168.195C1040.85 168.195 1039.84 167.788 1039.1 166.975V172.062H1037.3V157.434H1038.95L1039.04 158.605C1039.77 157.694 1040.79 157.238 1042.1 157.238C1043.37 157.238 1044.37 157.717 1045.11 158.674C1045.85 159.631 1046.22 160.962 1046.22 162.668V162.834ZM1044.42 162.629C1044.42 161.438 1044.16 160.497 1043.66 159.807C1043.15 159.117 1042.45 158.771 1041.57 158.771C1040.47 158.771 1039.65 159.257 1039.1 160.227V165.275C1039.65 166.239 1040.47 166.721 1041.59 166.721C1042.45 166.721 1043.14 166.379 1043.65 165.695C1044.16 165.005 1044.42 163.983 1044.42 162.629ZM1048.85 162.619C1048.85 161.584 1049.05 160.653 1049.46 159.826C1049.87 158.999 1050.43 158.361 1051.15 157.912C1051.88 157.463 1052.71 157.238 1053.64 157.238C1055.08 157.238 1056.25 157.736 1057.13 158.732C1058.02 159.729 1058.47 161.053 1058.47 162.707V162.834C1058.47 163.863 1058.27 164.787 1057.87 165.607C1057.48 166.421 1056.92 167.056 1056.18 167.512C1055.45 167.967 1054.61 168.195 1053.66 168.195C1052.23 168.195 1051.07 167.697 1050.18 166.701C1049.29 165.705 1048.85 164.387 1048.85 162.746V162.619ZM1050.67 162.834C1050.67 164.006 1050.94 164.947 1051.48 165.656C1052.02 166.366 1052.75 166.721 1053.66 166.721C1054.58 166.721 1055.31 166.363 1055.85 165.646C1056.39 164.924 1056.66 163.915 1056.66 162.619C1056.66 161.46 1056.39 160.523 1055.83 159.807C1055.29 159.084 1054.56 158.723 1053.64 158.723C1052.75 158.723 1052.03 159.077 1051.49 159.787C1050.94 160.497 1050.67 161.512 1050.67 162.834ZM1066.64 159.055C1066.37 159.009 1066.07 158.986 1065.75 158.986C1064.57 158.986 1063.76 159.491 1063.34 160.5V168H1061.53V157.434H1063.29L1063.32 158.654C1063.91 157.71 1064.75 157.238 1065.84 157.238C1066.19 157.238 1066.46 157.284 1066.64 157.375V159.055ZM476.621 198H474.814V187.434H476.621V198ZM474.668 184.631C474.668 184.338 474.755 184.09 474.931 183.889C475.114 183.687 475.38 183.586 475.732 183.586C476.084 183.586 476.351 183.687 476.533 183.889C476.715 184.09 476.806 184.338 476.806 184.631C476.806 184.924 476.715 185.168 476.533 185.363C476.351 185.559 476.084 185.656 475.732 185.656C475.38 185.656 475.114 185.559 474.931 185.363C474.755 185.168 474.668 184.924 474.668 184.631ZM482.03 187.434L482.089 188.762C482.896 187.746 483.951 187.238 485.253 187.238C487.486 187.238 488.612 188.498 488.632 191.018V198H486.825V191.008C486.818 190.246 486.643 189.683 486.298 189.318C485.959 188.954 485.429 188.771 484.706 188.771C484.12 188.771 483.606 188.928 483.163 189.24C482.72 189.553 482.375 189.963 482.128 190.471V198H480.321V187.434H482.03ZM496.395 196.721C497.039 196.721 497.602 196.525 498.084 196.135C498.566 195.744 498.833 195.256 498.885 194.67H500.594C500.561 195.275 500.353 195.852 499.969 196.398C499.585 196.945 499.07 197.382 498.426 197.707C497.788 198.033 497.111 198.195 496.395 198.195C494.956 198.195 493.81 197.717 492.957 196.76C492.111 195.796 491.688 194.481 491.688 192.814V192.512C491.688 191.483 491.876 190.568 492.254 189.768C492.632 188.967 493.172 188.345 493.875 187.902C494.585 187.46 495.421 187.238 496.385 187.238C497.57 187.238 498.553 187.593 499.334 188.303C500.122 189.012 500.542 189.934 500.594 191.066H498.885C498.833 190.383 498.572 189.823 498.104 189.387C497.641 188.944 497.068 188.723 496.385 188.723C495.467 188.723 494.754 189.055 494.246 189.719C493.745 190.376 493.494 191.33 493.494 192.58V192.922C493.494 194.139 493.745 195.077 494.246 195.734C494.747 196.392 495.464 196.721 496.395 196.721ZM505.388 198H503.581V187.434H505.388V198ZM503.435 184.631C503.435 184.338 503.523 184.09 503.698 183.889C503.881 183.687 504.148 183.586 504.499 183.586C504.851 183.586 505.118 183.687 505.3 183.889C505.482 184.09 505.573 184.338 505.573 184.631C505.573 184.924 505.482 185.168 505.3 185.363C505.118 185.559 504.851 185.656 504.499 185.656C504.148 185.656 503.881 185.559 503.698 185.363C503.523 185.168 503.435 184.924 503.435 184.631ZM508.649 192.629C508.649 191.008 509.033 189.706 509.801 188.723C510.569 187.733 511.575 187.238 512.819 187.238C514.056 187.238 515.036 187.661 515.758 188.508V183H517.565V198H515.905L515.817 196.867C515.094 197.753 514.088 198.195 512.799 198.195C511.575 198.195 510.576 197.694 509.801 196.691C509.033 195.689 508.649 194.38 508.649 192.766V192.629ZM510.455 192.834C510.455 194.032 510.703 194.969 511.198 195.646C511.692 196.324 512.376 196.662 513.248 196.662C514.394 196.662 515.231 196.148 515.758 195.119V190.266C515.218 189.27 514.388 188.771 513.268 188.771C512.383 188.771 511.692 189.113 511.198 189.797C510.703 190.48 510.455 191.493 510.455 192.834ZM523.14 198H521.334V187.434H523.14V198ZM521.187 184.631C521.187 184.338 521.275 184.09 521.451 183.889C521.633 183.687 521.9 183.586 522.252 183.586C522.603 183.586 522.87 183.687 523.052 183.889C523.235 184.09 523.326 184.338 523.326 184.631C523.326 184.924 523.235 185.168 523.052 185.363C522.87 185.559 522.603 185.656 522.252 185.656C521.9 185.656 521.633 185.559 521.451 185.363C521.275 185.168 521.187 184.924 521.187 184.631ZM526.401 192.629C526.401 191.008 526.785 189.706 527.554 188.723C528.322 187.733 529.328 187.238 530.571 187.238C531.808 187.238 532.788 187.661 533.511 188.508V183H535.317V198H533.657L533.569 196.867C532.846 197.753 531.841 198.195 530.552 198.195C529.328 198.195 528.328 197.694 527.554 196.691C526.785 195.689 526.401 194.38 526.401 192.766V192.629ZM528.208 192.834C528.208 194.032 528.455 194.969 528.95 195.646C529.445 196.324 530.128 196.662 531.001 196.662C532.147 196.662 532.983 196.148 533.511 195.119V190.266C532.97 189.27 532.14 188.771 531.02 188.771C530.135 188.771 529.445 189.113 528.95 189.797C528.455 190.48 528.208 191.493 528.208 192.834ZM545.453 196.955C544.75 197.782 543.718 198.195 542.357 198.195C541.231 198.195 540.372 197.87 539.779 197.219C539.193 196.561 538.897 195.591 538.891 194.309V187.434H540.697V194.26C540.697 195.861 541.348 196.662 542.65 196.662C544.031 196.662 544.949 196.148 545.404 195.119V187.434H547.211V198H545.492L545.453 196.955ZM552.474 187.434L552.532 188.762C553.34 187.746 554.394 187.238 555.696 187.238C557.93 187.238 559.056 188.498 559.075 191.018V198H557.269V191.008C557.262 190.246 557.086 189.683 556.741 189.318C556.403 188.954 555.872 188.771 555.15 188.771C554.564 188.771 554.049 188.928 553.607 189.24C553.164 189.553 552.819 189.963 552.571 190.471V198H550.765V187.434H552.474ZM565.051 184.875V187.434H567.024V188.83H565.051V195.383C565.051 195.806 565.139 196.125 565.315 196.34C565.491 196.548 565.79 196.652 566.213 196.652C566.422 196.652 566.708 196.613 567.073 196.535V198C566.597 198.13 566.135 198.195 565.686 198.195C564.879 198.195 564.27 197.951 563.86 197.463C563.45 196.975 563.245 196.281 563.245 195.383V188.83H561.321V187.434H563.245V184.875H565.051ZM582.227 196.955C581.524 197.782 580.492 198.195 579.132 198.195C578.005 198.195 577.146 197.87 576.554 197.219C575.968 196.561 575.671 195.591 575.665 194.309V187.434H577.471V194.26C577.471 195.861 578.123 196.662 579.425 196.662C580.805 196.662 581.723 196.148 582.179 195.119V187.434H583.985V198H582.266L582.227 196.955ZM589.99 184.875V187.434H591.963V188.83H589.99V195.383C589.99 195.806 590.078 196.125 590.254 196.34C590.43 196.548 590.729 196.652 591.152 196.652C591.361 196.652 591.647 196.613 592.012 196.535V198C591.536 198.13 591.074 198.195 590.625 198.195C589.818 198.195 589.209 197.951 588.799 197.463C588.389 196.975 588.184 196.281 588.184 195.383V188.83H586.26V187.434H588.184V184.875H589.99ZM602.606 198H600.799V183H602.606V198ZM612.83 198C612.726 197.792 612.641 197.421 612.576 196.887C611.736 197.759 610.733 198.195 609.568 198.195C608.526 198.195 607.67 197.902 607 197.316C606.336 196.724 606.004 195.975 606.004 195.07C606.004 193.97 606.42 193.117 607.254 192.512C608.093 191.9 609.272 191.594 610.789 191.594H612.546V190.764C612.546 190.132 612.358 189.631 611.98 189.26C611.602 188.882 611.046 188.693 610.31 188.693C609.666 188.693 609.125 188.856 608.689 189.182C608.253 189.507 608.035 189.901 608.035 190.363H606.218C606.218 189.836 606.404 189.328 606.775 188.84C607.153 188.345 607.66 187.954 608.298 187.668C608.943 187.382 609.649 187.238 610.418 187.238C611.635 187.238 612.589 187.544 613.279 188.156C613.969 188.762 614.327 189.598 614.353 190.666V195.529C614.353 196.499 614.477 197.271 614.724 197.844V198H612.83ZM609.832 196.623C610.398 196.623 610.935 196.477 611.443 196.184C611.951 195.891 612.319 195.51 612.546 195.041V192.873H611.13C608.917 192.873 607.81 193.521 607.81 194.816C607.81 195.383 607.999 195.826 608.377 196.145C608.754 196.464 609.239 196.623 609.832 196.623ZM626.93 192.834C626.93 194.449 626.559 195.747 625.817 196.73C625.075 197.707 624.079 198.195 622.829 198.195C621.494 198.195 620.462 197.723 619.733 196.779L619.645 198H617.985V183H619.792V188.596C620.521 187.691 621.527 187.238 622.809 187.238C624.092 187.238 625.098 187.723 625.827 188.693C626.563 189.663 626.93 190.992 626.93 192.678V192.834ZM625.124 192.629C625.124 191.398 624.886 190.448 624.411 189.777C623.936 189.107 623.252 188.771 622.36 188.771C621.169 188.771 620.313 189.325 619.792 190.432V195.002C620.345 196.109 621.208 196.662 622.38 196.662C623.246 196.662 623.919 196.327 624.401 195.656C624.883 194.986 625.124 193.977 625.124 192.629ZM629.537 192.619C629.537 191.584 629.739 190.653 630.143 189.826C630.553 188.999 631.119 188.361 631.842 187.912C632.571 187.463 633.401 187.238 634.332 187.238C635.771 187.238 636.933 187.736 637.818 188.732C638.71 189.729 639.156 191.053 639.156 192.707V192.834C639.156 193.863 638.958 194.787 638.561 195.607C638.17 196.421 637.607 197.056 636.871 197.512C636.142 197.967 635.302 198.195 634.352 198.195C632.919 198.195 631.757 197.697 630.865 196.701C629.98 195.705 629.537 194.387 629.537 192.746V192.619ZM631.354 192.834C631.354 194.006 631.624 194.947 632.164 195.656C632.711 196.366 633.44 196.721 634.352 196.721C635.27 196.721 635.999 196.363 636.539 195.646C637.079 194.924 637.35 193.915 637.35 192.619C637.35 191.46 637.073 190.523 636.52 189.807C635.973 189.084 635.243 188.723 634.332 188.723C633.44 188.723 632.721 189.077 632.174 189.787C631.627 190.497 631.354 191.512 631.354 192.834ZM647.329 189.055C647.056 189.009 646.76 188.986 646.441 188.986C645.256 188.986 644.452 189.491 644.029 190.5V198H642.222V187.434H643.98L644.009 188.654C644.601 187.71 645.441 187.238 646.529 187.238C646.88 187.238 647.147 187.284 647.329 187.375V189.055ZM653.989 198.195C652.556 198.195 651.391 197.727 650.493 196.789C649.594 195.845 649.145 194.585 649.145 193.01V192.678C649.145 191.63 649.343 190.695 649.741 189.875C650.144 189.048 650.704 188.404 651.42 187.941C652.143 187.473 652.924 187.238 653.764 187.238C655.138 187.238 656.205 187.691 656.967 188.596C657.729 189.501 658.11 190.796 658.11 192.482V193.234H650.952C650.978 194.276 651.28 195.119 651.86 195.764C652.446 196.402 653.188 196.721 654.086 196.721C654.724 196.721 655.265 196.59 655.707 196.33C656.15 196.07 656.537 195.725 656.87 195.295L657.973 196.154C657.088 197.515 655.759 198.195 653.989 198.195ZM653.764 188.723C653.035 188.723 652.423 188.99 651.928 189.523C651.433 190.051 651.127 190.793 651.01 191.75H656.303V191.613C656.251 190.695 656.004 189.986 655.561 189.484C655.118 188.977 654.519 188.723 653.764 188.723ZM671.155 198.195C669.723 198.195 668.557 197.727 667.659 196.789C666.761 195.845 666.311 194.585 666.311 193.01V192.678C666.311 191.63 666.51 190.695 666.907 189.875C667.311 189.048 667.871 188.404 668.587 187.941C669.309 187.473 670.091 187.238 670.93 187.238C672.304 187.238 673.372 187.691 674.134 188.596C674.895 189.501 675.276 190.796 675.276 192.482V193.234H668.118C668.144 194.276 668.447 195.119 669.026 195.764C669.612 196.402 670.354 196.721 671.253 196.721C671.891 196.721 672.431 196.59 672.874 196.33C673.317 196.07 673.704 195.725 674.036 195.295L675.139 196.154C674.254 197.515 672.926 198.195 671.155 198.195ZM670.93 188.723C670.201 188.723 669.589 188.99 669.095 189.523C668.6 190.051 668.294 190.793 668.177 191.75H673.47V191.613C673.417 190.695 673.17 189.986 672.727 189.484C672.285 188.977 671.686 188.723 670.93 188.723ZM680.627 184.875V187.434H682.6V188.83H680.627V195.383C680.627 195.806 680.715 196.125 680.891 196.34C681.066 196.548 681.366 196.652 681.789 196.652C681.997 196.652 682.284 196.613 682.648 196.535V198C682.173 198.13 681.711 198.195 681.262 198.195C680.454 198.195 679.846 197.951 679.436 197.463C679.025 196.975 678.82 196.281 678.82 195.383V188.83H676.896V187.434H678.82V184.875H680.627ZM690.84 192.629C690.84 191.008 691.224 189.706 691.993 188.723C692.761 187.733 693.767 187.238 695.01 187.238C696.247 187.238 697.227 187.661 697.95 188.508V183H699.756V198H698.096L698.008 196.867C697.286 197.753 696.28 198.195 694.991 198.195C693.767 198.195 692.767 197.694 691.993 196.691C691.224 195.689 690.84 194.38 690.84 192.766V192.629ZM692.647 192.834C692.647 194.032 692.894 194.969 693.389 195.646C693.884 196.324 694.567 196.662 695.44 196.662C696.586 196.662 697.422 196.148 697.95 195.119V190.266C697.409 189.27 696.579 188.771 695.459 188.771C694.574 188.771 693.884 189.113 693.389 189.797C692.894 190.48 692.647 191.493 692.647 192.834ZM702.89 192.619C702.89 191.584 703.092 190.653 703.496 189.826C703.906 188.999 704.472 188.361 705.195 187.912C705.924 187.463 706.754 187.238 707.685 187.238C709.124 187.238 710.286 187.736 711.171 188.732C712.063 189.729 712.509 191.053 712.509 192.707V192.834C712.509 193.863 712.311 194.787 711.914 195.607C711.523 196.421 710.96 197.056 710.224 197.512C709.495 197.967 708.655 198.195 707.705 198.195C706.272 198.195 705.11 197.697 704.218 196.701C703.333 195.705 702.89 194.387 702.89 192.746V192.619ZM704.707 192.834C704.707 194.006 704.977 194.947 705.517 195.656C706.064 196.366 706.793 196.721 707.705 196.721C708.623 196.721 709.352 196.363 709.892 195.646C710.433 194.924 710.703 193.915 710.703 192.619C710.703 191.46 710.426 190.523 709.873 189.807C709.326 189.084 708.597 188.723 707.685 188.723C706.793 188.723 706.074 189.077 705.527 189.787C704.98 190.497 704.707 191.512 704.707 192.834ZM717.538 198H715.731V183H717.538V198ZM720.76 192.619C720.76 191.584 720.962 190.653 721.365 189.826C721.775 188.999 722.342 188.361 723.064 187.912C723.794 187.463 724.624 187.238 725.555 187.238C726.993 187.238 728.156 187.736 729.041 188.732C729.933 189.729 730.379 191.053 730.379 192.707V192.834C730.379 193.863 730.18 194.787 729.783 195.607C729.393 196.421 728.829 197.056 728.094 197.512C727.365 197.967 726.525 198.195 725.574 198.195C724.142 198.195 722.98 197.697 722.088 196.701C721.202 195.705 720.76 194.387 720.76 192.746V192.619ZM722.576 192.834C722.576 194.006 722.846 194.947 723.387 195.656C723.934 196.366 724.663 196.721 725.574 196.721C726.492 196.721 727.221 196.363 727.762 195.646C728.302 194.924 728.572 193.915 728.572 192.619C728.572 191.46 728.296 190.523 727.742 189.807C727.195 189.084 726.466 188.723 725.555 188.723C724.663 188.723 723.943 189.077 723.396 189.787C722.85 190.497 722.576 191.512 722.576 192.834ZM738.552 189.055C738.279 189.009 737.982 188.986 737.663 188.986C736.478 188.986 735.674 189.491 735.251 190.5V198H733.445V187.434H735.202L735.232 188.654C735.824 187.71 736.664 187.238 737.751 187.238C738.103 187.238 738.37 187.284 738.552 187.375V189.055ZM745.211 198.195C743.779 198.195 742.614 197.727 741.715 196.789C740.817 195.845 740.368 194.585 740.368 193.01V192.678C740.368 191.63 740.566 190.695 740.963 189.875C741.367 189.048 741.927 188.404 742.643 187.941C743.366 187.473 744.147 187.238 744.987 187.238C746.36 187.238 747.428 187.691 748.19 188.596C748.952 189.501 749.332 190.796 749.332 192.482V193.234H742.174C742.2 194.276 742.503 195.119 743.082 195.764C743.668 196.402 744.411 196.721 745.309 196.721C745.947 196.721 746.487 196.59 746.93 196.33C747.373 196.07 747.76 195.725 748.092 195.295L749.196 196.154C748.31 197.515 746.982 198.195 745.211 198.195ZM744.987 188.723C744.258 188.723 743.646 188.99 743.151 189.523C742.656 190.051 742.35 190.793 742.233 191.75H747.526V191.613C747.474 190.695 747.226 189.986 746.784 189.484C746.341 188.977 745.742 188.723 744.987 188.723ZM759.692 187.434L759.741 188.605C760.516 187.694 761.561 187.238 762.876 187.238C764.354 187.238 765.359 187.805 765.893 188.938C766.245 188.43 766.701 188.02 767.261 187.707C767.827 187.395 768.494 187.238 769.262 187.238C771.58 187.238 772.759 188.465 772.798 190.92V198H770.991V191.027C770.991 190.272 770.818 189.709 770.473 189.338C770.128 188.96 769.549 188.771 768.735 188.771C768.065 188.771 767.508 188.973 767.065 189.377C766.623 189.774 766.365 190.311 766.294 190.988V198H764.477V191.076C764.477 189.54 763.725 188.771 762.221 188.771C761.037 188.771 760.226 189.276 759.79 190.285V198H757.983V187.434H759.692ZM782.855 198C782.751 197.792 782.667 197.421 782.602 196.887C781.762 197.759 780.759 198.195 779.594 198.195C778.552 198.195 777.696 197.902 777.025 197.316C776.361 196.724 776.029 195.975 776.029 195.07C776.029 193.97 776.446 193.117 777.279 192.512C778.119 191.9 779.298 191.594 780.814 191.594H782.572V190.764C782.572 190.132 782.383 189.631 782.006 189.26C781.628 188.882 781.072 188.693 780.336 188.693C779.691 188.693 779.151 188.856 778.715 189.182C778.279 189.507 778.061 189.901 778.061 190.363H776.244C776.244 189.836 776.43 189.328 776.801 188.84C777.178 188.345 777.686 187.954 778.324 187.668C778.969 187.382 779.675 187.238 780.443 187.238C781.661 187.238 782.615 187.544 783.305 188.156C783.995 188.762 784.353 189.598 784.379 190.666V195.529C784.379 196.499 784.503 197.271 784.75 197.844V198H782.855ZM779.857 196.623C780.424 196.623 780.961 196.477 781.469 196.184C781.977 195.891 782.344 195.51 782.572 195.041V192.873H781.156C778.943 192.873 777.836 193.521 777.836 194.816C777.836 195.383 778.025 195.826 778.402 196.145C778.78 196.464 779.265 196.623 779.857 196.623ZM787.581 192.629C787.581 190.982 787.962 189.673 788.724 188.703C789.486 187.727 790.495 187.238 791.751 187.238C793.04 187.238 794.046 187.694 794.769 188.605L794.857 187.434H796.507V197.746C796.507 199.113 796.1 200.191 795.286 200.979C794.479 201.766 793.392 202.16 792.025 202.16C791.263 202.16 790.517 201.997 789.788 201.672C789.059 201.346 788.502 200.9 788.118 200.334L789.056 199.25C789.831 200.207 790.778 200.686 791.898 200.686C792.777 200.686 793.46 200.438 793.948 199.943C794.443 199.449 794.691 198.752 794.691 197.854V196.945C793.968 197.779 792.982 198.195 791.732 198.195C790.495 198.195 789.492 197.697 788.724 196.701C787.962 195.705 787.581 194.348 787.581 192.629ZM789.398 192.834C789.398 194.025 789.642 194.963 790.13 195.646C790.618 196.324 791.302 196.662 792.181 196.662C793.32 196.662 794.157 196.145 794.691 195.109V190.285C794.137 189.276 793.307 188.771 792.2 188.771C791.321 188.771 790.635 189.113 790.14 189.797C789.645 190.48 789.398 191.493 789.398 192.834ZM801.75 187.434L801.809 188.762C802.616 187.746 803.671 187.238 804.973 187.238C807.206 187.238 808.332 188.498 808.352 191.018V198H806.545V191.008C806.539 190.246 806.363 189.683 806.018 189.318C805.679 188.954 805.149 188.771 804.426 188.771C803.84 188.771 803.326 188.928 802.883 189.24C802.441 189.553 802.095 189.963 801.848 190.471V198H800.041V187.434H801.75ZM818.4 198C818.296 197.792 818.211 197.421 818.146 196.887C817.306 197.759 816.304 198.195 815.138 198.195C814.097 198.195 813.241 197.902 812.57 197.316C811.906 196.724 811.574 195.975 811.574 195.07C811.574 193.97 811.991 193.117 812.824 192.512C813.664 191.9 814.842 191.594 816.359 191.594H818.117V190.764C818.117 190.132 817.928 189.631 817.55 189.26C817.173 188.882 816.616 188.693 815.88 188.693C815.236 188.693 814.696 188.856 814.259 189.182C813.823 189.507 813.605 189.901 813.605 190.363H811.789C811.789 189.836 811.974 189.328 812.345 188.84C812.723 188.345 813.231 187.954 813.869 187.668C814.513 187.382 815.22 187.238 815.988 187.238C817.205 187.238 818.159 187.544 818.849 188.156C819.539 188.762 819.897 189.598 819.923 190.666V195.529C819.923 196.499 820.047 197.271 820.295 197.844V198H818.4ZM815.402 196.623C815.968 196.623 816.505 196.477 817.013 196.184C817.521 195.891 817.889 195.51 818.117 195.041V192.873H816.701C814.487 192.873 813.38 193.521 813.38 194.816C813.38 195.383 813.569 195.826 813.947 196.145C814.325 196.464 814.81 196.623 815.402 196.623ZM835.84 198C835.736 197.792 835.651 197.421 835.586 196.887C834.746 197.759 833.743 198.195 832.578 198.195C831.536 198.195 830.68 197.902 830.01 197.316C829.346 196.724 829.014 195.975 829.014 195.07C829.014 193.97 829.43 193.117 830.264 192.512C831.104 191.9 832.282 191.594 833.799 191.594H835.557V190.764C835.557 190.132 835.368 189.631 834.99 189.26C834.613 188.882 834.056 188.693 833.32 188.693C832.676 188.693 832.135 188.856 831.699 189.182C831.263 189.507 831.045 189.901 831.045 190.363H829.229C829.229 189.836 829.414 189.328 829.785 188.84C830.163 188.345 830.671 187.954 831.309 187.668C831.953 187.382 832.66 187.238 833.428 187.238C834.645 187.238 835.599 187.544 836.289 188.156C836.979 188.762 837.337 189.598 837.363 190.666V195.529C837.363 196.499 837.487 197.271 837.734 197.844V198H835.84ZM832.842 196.623C833.408 196.623 833.945 196.477 834.453 196.184C834.961 195.891 835.329 195.51 835.557 195.041V192.873H834.141C831.927 192.873 830.82 193.521 830.82 194.816C830.82 195.383 831.009 195.826 831.387 196.145C831.764 196.464 832.249 196.623 832.842 196.623ZM842.958 198H841.152V183H842.958V198ZM848.621 198H846.815V187.434H848.621V198ZM846.668 184.631C846.668 184.338 846.756 184.09 846.932 183.889C847.114 183.687 847.381 183.586 847.733 183.586C848.084 183.586 848.351 183.687 848.534 183.889C848.716 184.09 848.807 184.338 848.807 184.631C848.807 184.924 848.716 185.168 848.534 185.363C848.351 185.559 848.084 185.656 847.733 185.656C847.381 185.656 847.114 185.559 846.932 185.363C846.756 185.168 846.668 184.924 846.668 184.631ZM851.882 192.629C851.882 190.969 852.263 189.657 853.025 188.693C853.787 187.723 854.809 187.238 856.091 187.238C857.341 187.238 858.328 187.658 859.05 188.498L859.129 187.434H860.789V202.062H858.982V197.023C858.253 197.805 857.283 198.195 856.072 198.195C854.796 198.195 853.777 197.701 853.015 196.711C852.26 195.715 851.882 194.396 851.882 192.756V192.629ZM853.689 192.834C853.689 194.045 853.943 194.995 854.451 195.686C854.965 196.376 855.655 196.721 856.521 196.721C857.595 196.721 858.416 196.245 858.982 195.295V190.119C858.409 189.188 857.595 188.723 856.541 188.723C855.668 188.723 854.975 189.071 854.461 189.768C853.946 190.458 853.689 191.48 853.689 192.834ZM871.012 196.955C870.309 197.782 869.277 198.195 867.917 198.195C866.79 198.195 865.931 197.87 865.339 197.219C864.753 196.561 864.456 195.591 864.45 194.309V187.434H866.257V194.26C866.257 195.861 866.908 196.662 868.21 196.662C869.59 196.662 870.508 196.148 870.964 195.119V187.434H872.77V198H871.052L871.012 196.955ZM882.848 198C882.743 197.792 882.659 197.421 882.594 196.887C881.754 197.759 880.751 198.195 879.586 198.195C878.544 198.195 877.688 197.902 877.018 197.316C876.354 196.724 876.021 195.975 876.021 195.07C876.021 193.97 876.438 193.117 877.271 192.512C878.111 191.9 879.29 191.594 880.807 191.594H882.564V190.764C882.564 190.132 882.376 189.631 881.998 189.26C881.62 188.882 881.064 188.693 880.328 188.693C879.684 188.693 879.143 188.856 878.707 189.182C878.271 189.507 878.053 189.901 878.053 190.363H876.236C876.236 189.836 876.422 189.328 876.793 188.84C877.171 188.345 877.678 187.954 878.316 187.668C878.961 187.382 879.667 187.238 880.436 187.238C881.653 187.238 882.607 187.544 883.297 188.156C883.987 188.762 884.345 189.598 884.371 190.666V195.529C884.371 196.499 884.495 197.271 884.742 197.844V198H882.848ZM879.85 196.623C880.416 196.623 880.953 196.477 881.461 196.184C881.969 195.891 882.337 195.51 882.564 195.041V192.873H881.148C878.935 192.873 877.828 193.521 877.828 194.816C877.828 195.383 878.017 195.826 878.395 196.145C878.772 196.464 879.257 196.623 879.85 196.623ZM888.042 197.053C888.042 196.74 888.133 196.48 888.316 196.271C888.504 196.063 888.784 195.959 889.155 195.959C889.527 195.959 889.806 196.063 889.995 196.271C890.191 196.48 890.288 196.74 890.288 197.053C890.288 197.352 890.191 197.603 889.995 197.805C889.806 198.007 889.527 198.107 889.155 198.107C888.784 198.107 888.504 198.007 888.316 197.805C888.133 197.603 888.042 197.352 888.042 197.053Z" fill="white" fill-opacity="0.6"/>
<defs>
<linearGradient id="paint0_linear_1_812" x1="1366" y1="-59.9999" x2="437.548" y2="732.556" gradientUnits="userSpaceOnUse">
<stop stop-color="#98D0FC"/>
<stop offset="1" stop-color="#3481D7"/>
</linearGradient>
</defs>
</svg>
